<?xml version="1.0" encoding="utf-8"?>
<!-- Generator: Adobe Illustrator 18.1.0, SVG Export Plug-In . SVG Version: 6.00 Build 0)  -->
<svg version="1.1" id="Layer_1" xmlns="http://www.w3.org/2000/svg" xmlns:xlink="http://www.w3.org/1999/xlink" x="0px" y="0px"
	 viewBox="0 0 50 50" enable-background="new 0 0 50 50" xml:space="preserve">
<g id="SUITCASE_1_" enable-background="new    ">
	<g id="SUITCASE">
		<g>
			<path fill="#D86A22" d="M69.4,17.4v25.5c0,1.1,0.9,2.1,2.1,2.1h3.4V15.3h-3.4C70.4,15.3,69.4,16.3,69.4,17.4z M91.5,5
				c-5.7,0-10.3,4.6-10.3,10.3H77V45h29V15.3h-4.1C101.8,9.6,97.2,5,91.5,5z M85.3,15.3c0-3.4,2.8-6.2,6.2-6.2s6.2,2.8,6.2,6.2H85.3
				z M111.5,15.3h-3.4V45h3.4c1.1,0,2.1-0.9,2.1-2.1V17.4C113.6,16.3,112.6,15.3,111.5,15.3z"/>
		</g>
	</g>
</g>
<g id="MAIL_1_" enable-background="new    ">
	<g id="MAIL">
		<g>
			<path fill="#D86A22" d="M49.2,60.8c-0.4-0.4-1-0.6-1.6-0.6H2.3c-0.6,0-1.1,0.2-1.6,0.6L25,79.7L49.2,60.8z M0.7,60.8
				c-0.4,0.4-0.7,1-0.7,1.7v29.7c0,0.6,0.2,1.2,0.6,1.6l15.3-18.2L0.7,60.8z M25,84.4l-6.4-6.2L0.7,93.9c0.4,0.4,1,0.6,1.6,0.6h45.3
				c0.6,0,1.2-0.2,1.6-0.6L31.4,78.2L25,84.4z M49.3,60.8L34.1,75.6l15.3,18.2c0.4-0.4,0.6-1,0.6-1.6V62.5
				C50,61.8,49.7,61.2,49.3,60.8z"/>
		</g>
	</g>
</g>
<g id="BOOK_2_1_" enable-background="new    ">
	<g id="BOOK_2">
		<g>
			<path fill="#D86A22" d="M11.7,25.5L11.7,25.5l6.9,3.1l0,0c0.2,0.1,0.5,0.2,0.8,0.2c1,0,1.9-0.8,1.9-1.9c0-0.8-0.5-1.4-1.1-1.7
				l0,0L13.3,22l0,0c-0.2-0.1-0.5-0.2-0.8-0.2c-1,0-1.9,0.8-1.9,1.9C10.6,24.5,11.1,25.2,11.7,25.5z M11.7,32.3L11.7,32.3l6.9,3.1
				l0,0c0.2,0.1,0.5,0.2,0.8,0.2c1,0,1.9-0.8,1.9-1.9c0-0.8-0.5-1.4-1.1-1.7l0,0l-6.9-3.1l0,0c-0.2-0.1-0.5-0.2-0.8-0.2
				c-1,0-1.9,0.8-1.9,1.9C10.6,31.4,11.1,32,11.7,32.3z M11.7,18.6L11.7,18.6l6.9,3.1l0,0c0.2,0.1,0.5,0.2,0.8,0.2
				c1,0,1.9-0.8,1.9-1.9c0-0.8-0.5-1.4-1.1-1.7l0,0l-6.9-3.1l0,0C13,15.1,12.8,15,12.5,15c-1,0-1.9,0.8-1.9,1.9
				C10.6,17.6,11.1,18.3,11.7,18.6z M30.6,35.6c0.3,0,0.5-0.1,0.8-0.2l0,0l6.9-3.1l0,0c0.6-0.3,1.1-0.9,1.1-1.7c0-1-0.8-1.9-1.9-1.9
				c-0.3,0-0.5,0.1-0.8,0.2l0,0L29.8,32l0,0c-0.6,0.3-1.1,0.9-1.1,1.7C28.8,34.8,29.6,35.6,30.6,35.6z M43.1,5
				c-0.3,0-0.5,0.1-0.7,0.1l0,0l0,0c0,0,0,0,0,0L25,12.3L7.6,5.2c0,0,0,0,0,0l0,0l0,0C7.4,5.1,7.1,5,6.9,5C5.8,5,5,5.8,5,6.9v28.8
				c0,0.8,0.5,1.5,1.2,1.7l18.1,7.5c0.2,0.1,0.5,0.2,0.7,0.2s0.5-0.1,0.7-0.2l18.1-7.5c0.7-0.3,1.2-1,1.2-1.7V6.9
				C45,5.8,44.2,5,43.1,5z M23.1,40.3L8.8,34.4V9.7l14.4,5.9V40.3z M41.2,34.4l-14.4,5.9V15.6l14.4-5.9V34.4z M30.6,28.8
				c0.3,0,0.5-0.1,0.8-0.2l0,0l6.9-3.1c0.6-0.3,1.1-0.9,1.1-1.7c0-1-0.8-1.9-1.9-1.9c-0.3,0-0.5,0.1-0.8,0.2l0,0l-6.9,3.1l0,0
				c-0.6,0.3-1.1,0.9-1.1,1.7C28.8,27.9,29.6,28.8,30.6,28.8z M30.6,21.9c0.3,0,0.5-0.1,0.8-0.2l0,0l6.9-3.1l0,0
				c0.6-0.3,1.1-0.9,1.1-1.7c0-1-0.8-1.9-1.9-1.9c-0.3,0-0.5,0.1-0.8,0.2l0,0l-6.9,3.1c-0.6,0.3-1.1,0.9-1.1,1.7
				C28.8,21,29.6,21.9,30.6,21.9z"/>
		</g>
	</g>
</g>
</svg>
