<?xml version="1.0" encoding="utf-8"?>
<!-- Generator: Adobe Illustrator 18.1.0, SVG Export Plug-In . SVG Version: 6.00 Build 0)  -->
<svg version="1.1" id="Layer_1" xmlns="http://www.w3.org/2000/svg" xmlns:xlink="http://www.w3.org/1999/xlink" x="0px" y="0px"
	 viewBox="0 0 50 50" enable-background="new 0 0 50 50" xml:space="preserve">
<g id="twitter_1_" enable-background="new    ">
	<g id="twitter">
		<g>
			<path fill="#2BC8FF" d="M34.8,18L34.8,18c0.2-0.1,0.4-0.2,0.6-0.4c0.8-0.6,1.3-1.4,1.7-2.4c-0.2,0.1-0.4,0.2-0.6,0.4
				c-0.7,0.3-1.8,0.8-2.6,0.9c-1-0.9-2.1-1.6-4.1-1.6c-0.2,0-0.4,0.1-0.6,0.1c-0.4,0.1-0.8,0.2-1.1,0.4c-1.4,0.6-2.4,1.8-2.9,3.4
				c-0.2,0.6-0.2,1.7,0,2.4c-0.8,0-1.6-0.1-2.3-0.3c-2.7-0.7-4.4-1.6-6.2-3c-0.6-0.4-1.1-0.9-1.5-1.4c-0.1-0.2-0.4-0.3-0.4-0.6l0,0
				c-0.2,0.4-0.4,0.8-0.6,1.3c-0.5,1.9,0.3,3.6,1.1,4.6c0.2,0.3,0.7,0.5,0.9,0.8l0,0c-0.2,0.1-0.6,0-0.7-0.1
				c-0.4-0.1-0.8-0.2-1.1-0.3C14.2,22.1,14,22,13.9,22c0,2.1,1.1,3.6,2.4,4.4c0.4,0.2,1.1,0.6,1.7,0.7c-0.3,0.3-1.8,0.1-2.3,0.1
				c0.6,1.6,1.6,2.7,3.2,3.2c0.4,0.1,0.9,0.3,1.5,0.3c-0.3,0.4-0.9,0.7-1.4,0.9c-0.9,0.5-1.9,0.9-3.1,1.1c-0.4,0.1-0.9,0.1-1.4,0.2
				c-0.6,0.1-1.1-0.1-1.6-0.1c0.1,0.1,0.3,0.2,0.4,0.3c0.4,0.2,0.9,0.5,1.4,0.8c0.9,0.4,1.9,0.7,3,1c2.2,0.6,5.3,0.3,7.3-0.3
				c5.4-1.7,8.7-5.6,10.1-11.3c0.2-1,0.2-2.1,0.2-3.3c0.3-0.2,0.6-0.4,0.8-0.6c0.7-0.5,1.2-1.2,1.8-2l0,0C36.8,17.5,35.8,18,34.8,18
				z"/>
		</g>
	</g>
</g>
</svg>
