<?xml version="1.0" encoding="utf-8"?>
<!-- Generator: Adobe Illustrator 18.1.0, SVG Export Plug-In . SVG Version: 6.00 Build 0)  -->
<svg version="1.1" id="Layer_1" xmlns="http://www.w3.org/2000/svg" xmlns:xlink="http://www.w3.org/1999/xlink" x="0px" y="0px"
	 viewBox="0 0 50 50" enable-background="new 0 0 50 50" xml:space="preserve">
<g id="SUITCASE_1_" enable-background="new    ">
	<g id="SUITCASE">
		<g>
			<path fill="#D86A22" d="M74.6,17.4v25.5c0,1.1,0.9,2.1,2.1,2.1h3.4V15.3h-3.4C75.5,15.3,74.6,16.3,74.6,17.4z M96.7,5
				C91,5,86.3,9.6,86.3,15.3h-4.1V45h29V15.3H107C107,9.6,102.4,5,96.7,5z M90.5,15.3c0-3.4,2.8-6.2,6.2-6.2s6.2,2.8,6.2,6.2H90.5z
				 M116.7,15.3h-3.4V45h3.4c1.1,0,2.1-0.9,2.1-2.1V17.4C118.7,16.3,117.8,15.3,116.7,15.3z"/>
		</g>
	</g>
</g>
<g id="MAIL_1_" enable-background="new    ">
	<g id="MAIL">
		<g>
			<path fill="#D86A22" d="M44.4,11.7c-0.3-0.3-0.8-0.5-1.3-0.5H6.9c-0.5,0-0.9,0.2-1.3,0.5L25,26.9L44.4,11.7z M5.6,11.8
				C5.2,12.1,5,12.6,5,13.1v23.8c0,0.5,0.2,0.9,0.5,1.3l12.2-14.6L5.6,11.8z M25,30.6l-5.1-4.9L5.6,38.2c0.3,0.3,0.8,0.5,1.3,0.5
				h36.2c0.5,0,1-0.2,1.3-0.5L30.1,25.7L25,30.6z M44.4,11.8L32.3,23.6l12.2,14.6c0.3-0.3,0.5-0.8,0.5-1.3V13.1
				C45,12.6,44.8,12.1,44.4,11.8z"/>
		</g>
	</g>
</g>
<g id="BOOK_2_1_" enable-background="new    ">
	<g id="BOOK_2">
		<g>
			<path fill="#D86A22" d="M-43.3,25.5L-43.3,25.5l6.9,3.1l0,0c0.2,0.1,0.5,0.2,0.8,0.2c1,0,1.9-0.8,1.9-1.9c0-0.8-0.5-1.4-1.1-1.7
				l0,0l-6.9-3.1l0,0c-0.2-0.1-0.5-0.2-0.8-0.2c-1,0-1.9,0.8-1.9,1.9C-44.4,24.5-43.9,25.2-43.3,25.5z M-43.3,32.3L-43.3,32.3
				l6.9,3.1l0,0c0.2,0.1,0.5,0.2,0.8,0.2c1,0,1.9-0.8,1.9-1.9c0-0.8-0.5-1.4-1.1-1.7l0,0l-6.9-3.1l0,0c-0.2-0.1-0.5-0.2-0.8-0.2
				c-1,0-1.9,0.8-1.9,1.9C-44.4,31.4-43.9,32-43.3,32.3z M-43.3,18.6L-43.3,18.6l6.9,3.1l0,0c0.2,0.1,0.5,0.2,0.8,0.2
				c1,0,1.9-0.8,1.9-1.9c0-0.8-0.5-1.4-1.1-1.7l0,0l-6.9-3.1l0,0c-0.2-0.1-0.5-0.2-0.8-0.2c-1,0-1.9,0.8-1.9,1.9
				C-44.4,17.6-43.9,18.3-43.3,18.6z M-24.4,35.6c0.3,0,0.5-0.1,0.8-0.2l0,0l6.9-3.1l0,0c0.6-0.3,1.1-0.9,1.1-1.7
				c0-1-0.8-1.9-1.9-1.9c-0.3,0-0.5,0.1-0.8,0.2l0,0l-6.9,3.1l0,0c-0.6,0.3-1.1,0.9-1.1,1.7C-26.2,34.8-25.4,35.6-24.4,35.6z
				 M-11.9,5c-0.3,0-0.5,0.1-0.7,0.1l0,0l0,0c0,0,0,0,0,0L-30,12.3l-17.4-7.2c0,0,0,0,0,0l0,0l0,0C-47.6,5.1-47.9,5-48.1,5
				c-1,0-1.9,0.8-1.9,1.9v28.8c0,0.8,0.5,1.5,1.2,1.7l18.1,7.5c0.2,0.1,0.5,0.2,0.7,0.2s0.5-0.1,0.7-0.2l18.1-7.5
				c0.7-0.3,1.2-1,1.2-1.7V6.9C-10,5.8-10.8,5-11.9,5z M-31.9,40.3l-14.4-5.9V9.7l14.4,5.9V40.3z M-13.8,34.4l-14.4,5.9V15.6
				l14.4-5.9V34.4z M-24.4,28.8c0.3,0,0.5-0.1,0.8-0.2l0,0l6.9-3.1c0.6-0.3,1.1-0.9,1.1-1.7c0-1-0.8-1.9-1.9-1.9
				c-0.3,0-0.5,0.1-0.8,0.2l0,0l-6.9,3.1l0,0c-0.6,0.3-1.1,0.9-1.1,1.7C-26.2,27.9-25.4,28.8-24.4,28.8z M-24.4,21.9
				c0.3,0,0.5-0.1,0.8-0.2l0,0l6.9-3.1l0,0c0.6-0.3,1.1-0.9,1.1-1.7c0-1-0.8-1.9-1.9-1.9c-0.3,0-0.5,0.1-0.8,0.2l0,0l-6.9,3.1
				c-0.6,0.3-1.1,0.9-1.1,1.7C-26.2,21-25.4,21.9-24.4,21.9z"/>
		</g>
	</g>
</g>
</svg>
