<?xml version="1.0" encoding="utf-8"?>
<!-- Generator: Adobe Illustrator 18.1.0, SVG Export Plug-In . SVG Version: 6.00 Build 0)  -->
<svg version="1.1" id="Layer_1" xmlns="http://www.w3.org/2000/svg" xmlns:xlink="http://www.w3.org/1999/xlink" x="0px" y="0px"
	 viewBox="0 0 50 50" enable-background="new 0 0 50 50" xml:space="preserve">
<g id="linkedin_1_" enable-background="new    ">
	<g id="linkedin">
		<g>
			<path fill="#016CA2" d="M12.8,36.9h5.6V21.1h-5.6V36.9z M31.4,20.6c-2.3,0-3.6,0.8-5.1,2.6v-2.1h-5.6v15.9h5.6v-8.6
				c0-1.8,0.9-3.6,2.9-3.6s2.6,1.8,2.6,3.6v8.7h5.6v-9.1C37.5,21.6,33.8,20.6,31.4,20.6z M15.6,13.1c-1.8,0-3.1,1.2-3.1,2.8
				c0,1.6,1.4,2.8,3.1,2.8s3.1-1.2,3.1-2.8C18.8,14.4,17.3,13.1,15.6,13.1z"/>
		</g>
	</g>
</g>
</svg>
