<?xml version="1.0" encoding="utf-8"?>
<!-- Generator: Adobe Illustrator 18.1.0, SVG Export Plug-In . SVG Version: 6.00 Build 0)  -->
<svg version="1.1" id="Layer_1" xmlns="http://www.w3.org/2000/svg" xmlns:xlink="http://www.w3.org/1999/xlink" x="0px" y="0px"
	 viewBox="118.5 208.5 375 375" enable-background="new 118.5 208.5 375 375" xml:space="preserve">
<g>
	<polygon fill="#FFFFFF" points="305.7,547.5 312.1,524.2 299.2,524.2 	"/>
	<path fill="#FFFFFF" d="M139.5,482.2c2.4,4.2,6.8,8.2,18.4,6.2c0.1,0,0.2,0,0.3-0.1v4.9c0,1.8,2.3,3.2,5,3.2s5-1.4,5-3.2v-7.7h15.6
		l0.7-17h12.1l-0.2,15c85.5,50.2,160.2,24.7,160.2,24.7v-19.1C210.3,526.5,198.5,423,198.5,423v-64.3c4.6-26,15.2-35.1,15.2-35.1
		v-7.7c-0.1-6.9-0.7-11.8-1.5-15.4c-7.9,2.6-15.2,6.7-15.2,6.7l-1.1,15H184v-5.7v-6.9V305H168v-7.7c0-1.9-2.3-3.4-5-3.4
		c-2.8,0-5,1.5-5,3.4v4.7c-6.4,0-16,1.2-18.7,7.4c-2.1,4.7-4,14.4,7.9,19l0-0.1c-0.1-0.9-1.6-14.5,10.2-13.8
		c6.8,0.4,12,1.4,18.1,16.7c0.4,1,2.1,5.7,2.1,12.5V369c0,4.4-1.4,7.1-2.6,8.6l-16.9,17.1l16.7,17l0,0c0,0,2.8,2.9,2.8,9.7v30.1
		c0,1.4-0.1,2.7-0.2,3.9h0c-0.6,8.6-5.8,14.3-9.1,17.2c-0.9,0.9-1.9,1.6-2.8,2.1c0,0,0,0,0,0v0c-6.2,3.5-13.3,1.4-13.3,1.4
		c-4.1-0.7-5.1-4.8-5.2-8c0.1-2,0.2-3.8,0.2-3.8S132.3,469.3,139.5,482.2z"/>
	<path fill="#FFFFFF" d="M195.9,266.1c1.3,0.5,4.2,1.1,7.1-0.3c2.3-1.1,5-3.1,5.7-6.7l-1.8,1.2c-5.6,3.4-8.7,1.1-10.2-1.4h0
		c-0.1-0.1-0.2-0.3-0.2-0.4c-0.1-0.2-0.2-0.4-0.3-0.6c-1.5-3.3,0.2-7.6,0.5-8.2c3-5.6,9.7-4.3,9.7-4.3c7,0.6,10.8,10.7,12.8,21
		c3.6,25.1,4.8,64.1,4.9,100.1c-0.2,2.4-0.8,5.5-2.5,8.5l-7.9,13.9l8,12.2c0.5,0.7,1.8,3.2,2.1,6.9c-0.4,27.2-1.1,46.7-1.1,46.7
		c7.5,12.5,23.4,18.6,23.4,18.6c1-18.8,1.2-41.4,0.9-64.7h0c0-2.2,0.3-3.4,0.6-4l7.6-15.9l-7.1-8.1c-1.4-1.6-1.7-4.1-1.7-4.2
		c-1.2-47.7-3.6-92.7-4.6-109.6c1.1,4.3,4.9,14.1,14.2,7.2c0,0-4.6-5.8-4.5-14.6c0.1-5.1,2.5-7.9,3.7-9c3.2-2.6,7.3-5.1,12.1-5.6
		c0,0-4.3-11.8-13.4-11.3c0,0-9.9-0.2-14,7.2h-7.5c-2.2-3.1-7.5-8.4-18.7-10.1v0c-7-1-11-0.2-12.3,0.2c-5.4,1.6-15,6.2-16.1,19.5
		C185.5,250.3,184.5,261.7,195.9,266.1z"/>
	<path fill="#FFFFFF" d="M252.1,285.8v12.1c29.4-10.9,81.1-5.1,81.1-5.1l6.5-13.8C291.4,269.5,252.1,285.8,252.1,285.8z"/>
	<path fill="#FFFFFF" d="M266.5,529.8c-5.7,3.5-10.1,3.2-12.9,2.3c-1.3-0.2-2.3-0.9-3.3-1.8c0,0,0,0,0,0l0,0
		c-4.9-4.8-5.8-17.1-5.8-17.1c-5.5,0.3-21.9-5.8-21.9-5.8l-1.6,29.5c-0.3,2.1-0.8,4.5-2,6.4c-4,4.9-8,6.1-11.5,5.7c0,0,0,0,0,0
		c-13.3-1.1-10.6-14-10.6-14l0,0c0.6-10.2,12.2-9.2,12.2-9.2c0.7-5.8-3.7-8.6-7.3-10c-4.4-1.5-8.5-0.1-8.5-0.1l0,0
		c-8.9,3.1-10.5,11.4-10.6,16.3h-6.5c-2.1-10.6-11.5-14.2-18.4-15.4c-6.4-1-11.1,0.5-12.6,1.1c-0.2,0.1-0.4,0.1-0.5,0.2
		c-14.2,6.3-13.8,21.5-13.8,21.5c-1,12,4,16.8,7.6,18.8c0,0,3.5,1.8,10.1,0c6.1-2.4,7.3-7.6,7.3-7.6c-9.1,2.2-12.3-0.2-13.3-3
		c-0.2-0.5-1.9-4.9,0.2-9.7c0.3-1,0.8-1.8,1.4-2.5l0,0c0,0,0.1-0.1,0.2-0.2c0.1-0.1,0.1-0.1,0.1-0.2c0,0,0,0,0,0l0,0
		c0.7-0.7,1.5-1.3,2.3-1.7c2.2-1.3,5.5-2.5,9.8-1.6c0.4,0,0.6,0.1,0.6,0.1c1.4,0.3,3.1,1.1,4.8,2.2c0,0,0,0,0,0l0,0
		c4.6,2.8,10,7.7,13.9,11.4h0c0,0,0,0,0,0c0.5,0.5,1,0.9,1.4,1.4c2.4,2.3,7.1,6.8,10.5,9.3c1.4,0.8,2.8,1.5,4.2,2.2
		c0.1,0,12.9,8,24.4,3.1c2.2-0.7,6.2-2.5,10.3-6.8c0.3-0.3,0.5-0.5,0.7-0.8c0.1-0.1,0.2-0.2,0.2-0.3c1-1.2,1.9-2.3,2.6-3.5
		c0,0,0,0,0-0.1h0c2.6-4.1,3.4-7.5,3.4-7.5l0,0c2.1-5.3,2.6-10.7,2.8-13.6h4.8c3.7,14.4,14.6,13.6,14.6,13.6c15,0.3,13.5-15,13.5-15
		C268.7,528.4,267.6,529.2,266.5,529.8z"/>
	<path fill="#FFFFFF" d="M473.3,558.2c3.6-2,8.6-6.8,7.6-18.8c0,0,0.4-15.1-13.8-21.5c-0.2-0.1-0.4-0.1-0.5-0.2
		c-1.5-0.6-6.2-2.1-12.6-1.1c-6.8,1.2-16.3,4.8-18.4,15.4h-6.5c-0.1-4.9-1.7-13.1-10.6-16.3l0,0c0,0-4.2-1.4-8.5,0.1
		c-3.6,1.4-8,4.2-7.3,10c0,0,11.7-1,12.2,9.2l0,0c0,0,2.6,12.9-10.6,14v0c-3.4,0.4-7.5-0.8-11.5-5.7c-1.2-1.9-1.8-4.4-2-6.5
		l-0.2-4.1v0l-1.2-22.8l-0.6-16.9c9.1-8,48.8-44.1,67.1-78.7l0,0c0,0,0.1-0.1,0.2-0.4c0,0,0,0,0-0.1c0.5-0.9,1.8-3,3.9-3.7
		c1.4-0.4,3.1-0.6,5-0.6c0,0,9.6,0.6,6.8,11.3c0,0,4.4,0.1,5.8-6.2c0,0,0,0,0,0c1.9-7.9-1-11.7-1-11.7l0,0
		c-1.7-2.7-5.3-5.1-12.7-4.3c0.6-0.9,0.9-1.9,0.9-3c0-1-0.3-1.9-0.8-2.7c10.1,1,13-3.6,13.8-7.1h0c0,0,0,0,0,0c0,0,0,0,0,0
		c1.4-4.8,0.1-8.4-1.1-10.5c-0.4-0.8-0.9-1.5-1.4-1.9c-0.1-0.1-0.1-0.1-0.1-0.1s0,0,0,0c-1.7-1.5-3.4-1.5-3.4-1.5
		c2.8,10.3-6.8,10.8-6.8,10.8c-1.5,0-2.9-0.2-4.1-0.4c-2.9-0.6-3.8-2.8-3.8-2.8s0,0,0,0c-17.2-34.1-56.4-70.4-67.4-80.2
		c1.2-17.8,2.8-33.1,5-43.7c2.2-6.1,5.5-10.7,10.1-11.1c0,0,8.7-1.6,10.7,7.1c0.2,0.9,0.4,2.7-0.2,4.5c-1.1,2.9-4.1,7.5-11.1,3.2
		l-1.8-1.3c0.8,4,4,6.1,6.5,7.1c1.4,0.5,4.2,1,8-0.9c9.6-4.8,8.7-15.1,8.7-15.1c-0.9-11.4-8.3-16.4-13.7-18.6
		c-4-1.6-8.2-1.6-9.2-1.5c-14.9,0.6-21.6,7-24.1,10.6h-7.5c-4.1-7.5-14-7.2-14-7.2c-9.1-0.5-13.4,11.3-13.4,11.3s16.9,5.5,14.5,18.6
		c0,0-5.2,13.4-21.9,45.8c0,0,0,0,0,0c-0.9,2.1-4.1,7-14.8,12.1c0,0,6.1,11.5,4.7,18.7c-7,21.8-15.1,47-17.8,55.6c0,0,0,0,0,0
		c-0.1,0.4-0.2,0.7-0.3,1c-0.6,1.2-1.5,1.6-2.3,1.7c-0.3,0-0.6,0-0.9,0c-2.3,0-3.1-2-3.4-2.6c-2.9-9-10.7-33.6-17.6-55.1
		c-1.4-7.3,4.7-18.7,4.7-18.7c-10.9-5.2-14-10.2-14.8-12.3c-0.1-0.3-0.2-0.6-0.3-0.9v0c-0.6-1.9-1.1-3.2-1.3-3.8
		c-8.9,0-14,2.2-16.7,4.1c-0.1,0.1-0.2,0.2-0.3,0.3c-0.2,0.4,23.1,60.6,32.1,118.9l-0.1,0c0.3,1.6,0.5,3.1,0.7,4.5
		c0.1,0.8,0.2,1.6,0.3,2.4c1.1,8.9,0.7,14.5-0.2,17.8c-0.1,0.4-0.2,0.7-0.3,1c0,0,0,0.1,0,0.1c-0.9,2.1-2.3,3-2.9,3.3
		c-2.8,1.2-4.8,1.2-6.3,0.7c0,0,0,0.1,0,0.1c-0.1-0.1-0.2-0.1-0.4-0.2c0,0,0,0-0.1,0c-5.3-2.4-4.9-7.7-4.4-10c0-0.3,0.1-0.6,0.2-0.8
		c0-0.1,0-0.1,0.1-0.2c0-0.1,0-0.1,0.1-0.2c0,0,0,0,0,0l0,0c1-2.7,3.2-4.7,3.2-4.7c-4.4-0.4-7.6,0.3-10,1.4
		c-0.9,0.5-4.7,2.7-6.1,7.5c-2.2,9.9,1.9,16.4,4,18.9l0,0c0,0,0.1,0.2,0.3,0.4c0.4,0.5,0.7,0.8,0.8,0.9c2.4,2.3,8.5,7,18.5,7.6l0,0
		c3.7,0.2,7-0.6,9.7-1.7c-0.3,2.3-1.3,5.9-3.9,11.2c0,0,5.9-2.5,6,1.5h7.6h1.8h7.6c0.1-4,6-1.5,6-1.5c-2.6-5.3-3.6-8.8-3.9-11.2
		c2.7,1.2,6,1.9,9.7,1.7l0,0c10-0.6,16.1-5.3,18.5-7.6c0.1-0.1,0.4-0.4,0.8-0.9c0.2-0.3,0.3-0.4,0.3-0.4l0,0c2.2-2.6,6.2-9,4-18.9
		c-1.4-4.8-5.2-7-6.1-7.5c-2.3-1.1-5.5-1.8-10-1.4c0,0,2.3,2,3.2,4.7l0,0c0,0,0,0,0,0c0,0.1,0,0.1,0.1,0.2c0,0.1,0,0.1,0.1,0.2
		c0.1,0.3,0.1,0.5,0.2,0.8c0.5,2.4,0.9,7.6-4.4,10c0,0,0,0-0.1,0c-0.1,0.1-0.2,0.1-0.4,0.2c0,0,0,0,0-0.1c-1.5,0.5-3.5,0.5-6.3-0.7
		c-0.6-0.3-2.1-1.3-2.9-3.3c0,0,0-0.1,0-0.1c-0.1-0.3-0.2-0.7-0.3-1c-1-3.4-1.4-9.2-0.2-18.5h0c0.2-1.3,0.3-2.5,0.5-3.8
		c0.1-0.8,0.3-1.7,0.4-2.5l-0.1,0c2.2-14.6,5.3-29.3,8.8-43.2l0,0c0,0,0-0.1,0-0.2c3.4-13.6,7.1-26.5,10.5-37.6
		c9-31.7,21.2-72.5,25.2-77h0.7l-0.9,5.2h2.1c-0.8,17.1-2.4,54.6-3.7,97.8l0,0c0,0-0.5,3.1-1.5,4.4v0l-9.4,11.7l9,15
		c0,0,1.1,2.3,1,4.6h0c-0.8,39.7-1,80.9,0.2,113.6h0c0,0,0,3.7-1.7,6.6c-0.5,0.7-1,1.4-1.6,2l0,0c0,0-0.1,0.1-0.2,0.2
		c-0.9,0.8-2,1.4-3.2,1.7c-2.8,0.9-7.2,1.2-12.8-2.3c-1.1-0.6-2.2-1.4-3.2-2.3c0,0-1.5,15.3,13.5,15c0,0,9.2,0.7,13.6-10.3h6.2
		c0.3,2.9,1,6.6,2.5,10.4l0,0c0,0,0.8,3.5,3.4,7.5h0c0,0,0,0,0,0c0.7,1.1,1.6,2.3,2.6,3.5c0.1,0.1,0.1,0.1,0.2,0.2
		c0.3,0.3,0.5,0.6,0.8,0.9c4,4.3,8,6.1,10.3,6.8c11.5,4.9,24.4-3.1,24.5-3.1c1.4-0.6,2.9-1.4,4.2-2.2c3.3-2.5,8.1-7,10.5-9.3
		c0.4-0.4,0.9-0.9,1.4-1.4c0,0,0,0,0,0h0c3.8-3.7,9.3-8.6,13.9-11.4l0,0c0,0,0,0,0,0c1.8-1.1,3.5-1.9,4.8-2.2c0,0,0.2,0,0.6-0.1
		c4.3-0.9,7.7,0.3,9.8,1.6c0.9,0.4,1.7,1,2.3,1.7l0,0c0,0,0,0,0,0c0.1,0.1,0.1,0.1,0.1,0.2c0.1,0.1,0.2,0.2,0.2,0.2l0,0
		c0.6,0.7,1.1,1.5,1.4,2.5c2.1,4.8,0.4,9.2,0.2,9.7c-1,2.8-4.3,5.3-13.3,3c0,0,1.2,5.2,7.3,7.6C469.8,560,473.3,558.2,473.3,558.2z
		 M305.1,465.5l0-0.9l0-0.5l0,0.6L305.1,465.5z M387.2,407.2c0.3-1.7,1-3.4,1-3.4l8.9-16.2c0,0-5.5-9.9-8.9-16.3
		c-0.7-1.3-0.7-3.5-0.7-3.6c0.2-15.1,0.6-30.1,1.1-44.3c11.8,10.1,20.6,49.7,21.7,55.1c0.5-0.1,1.1-0.1,1.6-0.1
		c8.6,0,15.6,7,15.6,15.6c0,8.6-7,15.6-15.6,15.6c-0.5,0-0.9,0-1.4-0.1c0,1.2,0,2.1-0.1,2.8h0c0,0-9.6,46.8-22.7,56.3
		C387.5,451.9,387.2,430.4,387.2,407.2z"/>
</g>
</svg>
