<?xml version="1.0" encoding="utf-8"?>
<!-- Generator: Adobe Illustrator 18.1.1, SVG Export Plug-In . SVG Version: 6.00 Build 0)  -->
<svg version="1.1" id="Layer_1" xmlns="http://www.w3.org/2000/svg" xmlns:xlink="http://www.w3.org/1999/xlink" x="0px" y="0px"
	 viewBox="0 0 252 144" enable-background="new 0 0 252 144" xml:space="preserve">
<g id="MAIL_1_" enable-background="new    ">
	<g id="MAIL">
		<g>
			<path fill="#F1C761" d="M181.9,33.7c-0.9-0.9-2.3-1.4-3.7-1.4H73.9c-1.4,0-2.6,0.6-3.7,1.4L126,77.5L181.9,33.7z M70.1,34
				c-1.2,0.9-1.7,2.3-1.7,3.7v68.5c0,1.4,0.6,2.6,1.4,3.7L105,68L70.1,34z M126,88.1L111.3,74l-41.2,36c0.9,0.9,2.3,1.4,3.7,1.4
				h104.3c1.4,0,2.9-0.6,3.7-1.4l-41.2-36L126,88.1z M181.9,34L147,68l35.1,42c0.9-0.9,1.4-2.3,1.4-3.7V37.7
				C183.6,36.3,183,34.8,181.9,34z"/>
		</g>
	</g>
</g>
</svg>
