<?xml version="1.0" encoding="utf-8"?>
<!-- Generator: Adobe Illustrator 18.1.0, SVG Export Plug-In . SVG Version: 6.00 Build 0)  -->
<svg version="1.1" id="Layer_1" xmlns="http://www.w3.org/2000/svg" xmlns:xlink="http://www.w3.org/1999/xlink" x="0px" y="0px"
	 viewBox="0 0 50 50" enable-background="new 0 0 50 50" xml:space="preserve">
<g id="dribbble_1_" enable-background="new    ">
	<g id="dribbble">
		<g>
			<path fill="#F05493" d="M37.2,22.5c-0.2-0.8-0.4-1.6-0.8-2.4c-0.3-0.8-0.7-1.4-1.1-2.1s-0.9-1.3-1.5-1.9
				c-0.6-0.6-1.2-1.1-1.9-1.5s-1.4-0.8-2.1-1.1c-0.8-0.3-1.6-0.6-2.4-0.8c-0.8-0.2-1.6-0.3-2.5-0.3c-0.9,0-1.7,0.1-2.5,0.2
				c-0.8,0.2-1.6,0.4-2.4,0.8c-0.8,0.3-1.4,0.7-2.1,1.1s-1.3,0.9-1.9,1.5c-0.6,0.6-1.1,1.2-1.5,1.9s-0.8,1.4-1.1,2.1
				s-0.6,1.6-0.8,2.4c-0.2,0.8-0.3,1.6-0.3,2.5c0,0.9,0.1,1.7,0.2,2.5c0.2,0.8,0.4,1.6,0.8,2.4c0.3,0.8,0.7,1.4,1.1,2.1
				s0.9,1.3,1.5,1.9s1.2,1.1,1.9,1.5s1.4,0.8,2.1,1.1s1.6,0.6,2.4,0.8c0.8,0.2,1.7,0.2,2.5,0.2c0.9,0,1.7-0.1,2.5-0.2
				c0.8-0.2,1.6-0.4,2.4-0.8s1.4-0.7,2.1-1.1s1.3-0.9,1.9-1.5s1.1-1.2,1.5-1.9c0.4-0.7,0.8-1.4,1.1-2.1s0.6-1.6,0.8-2.4
				c0.2-0.8,0.2-1.7,0.2-2.5C37.5,24.1,37.4,23.3,37.2,22.5z M25,14.3c2.7,0,5.2,1,7.1,2.7c0,0.1-1.6,2.4-5.6,3.9
				c-1.8-3.4-3.8-6-4-6.2C23.3,14.4,24.1,14.3,25,14.3z M22.4,14.6L22.4,14.6L22.4,14.6L22.4,14.6z M20.4,15.4
				c0.1,0.2,2.1,2.9,3.9,6.1c-5.1,1.4-9.6,1.3-9.9,1.3C15.3,19.5,17.4,16.8,20.4,15.4z M17.1,32.1c-1.7-1.9-2.8-4.4-2.8-7.1
				c0-0.1,0-0.2,0-0.3c0.2,0,5.4,0.1,10.9-1.5c0.3,0.6,0.6,1.2,0.9,1.8c-0.1,0.1-0.2,0.1-0.4,0.1C20,26.9,17.1,32.1,17.1,32.1
				L17.1,32.1z M25,35.7c-2.5,0-4.8-0.9-6.6-2.2l0,0c0,0-0.1-0.1-0.2-0.2c0.1,0.1,0.2,0.1,0.2,0.2c0.1-0.1,2.1-4.5,8.4-6.7h0.1
				c1.5,3.9,2.1,7.2,2.2,8.1C27.9,35.4,26.5,35.7,25,35.7z M30.9,33.9c-0.1-0.6-0.7-3.8-2.1-7.6c3.4-0.6,6.4,0.4,6.6,0.4
				C35.1,29.7,33.4,32.2,30.9,33.9z M28.2,24.6c-0.1-0.2-0.1-0.4-0.2-0.6c-0.2-0.5-0.4-1.1-0.7-1.6c4.2-1.7,5.9-4.2,5.9-4.2
				c1.5,1.8,2.4,4.1,2.4,6.7C35.5,24.9,31.9,24.1,28.2,24.6z"/>
		</g>
	</g>
</g>
</svg>
